<svg id="Layer_1" data-name="Layer 1" xmlns="http://www.w3.org/2000/svg" viewBox="0 0 378.74 382.56"><defs><style>.cls-1{fill:#c1272d;stroke:#9e005d;stroke-miterlimit:10;stroke-width:7px;}</style></defs><title>Untitled-1</title><path class="cls-1" d="M427,127.79a98.1,98.1,0,0,0-29.84-30.64C390,92.48,372.47,81.28,348.75,81c-33.25-.37-65.68,20.89-79,47.58-8.12,16.21-8.5,33.05-13.71,33.06-3.89,0-4.73-9.34-12.1-23.38-11.37-21.68-27.52-34-33.87-38.71-8.53-6.35-17.91-13.35-32.26-16.13-11.42-2.22-20.36-.68-29,.8-9.67,1.66-26,4.47-41.13,16.13C94.92,110.16,89,121.64,84.23,131c-3.11,6.16-18.73,38.28-14.51,83.87,3,32.64,15.88,55.24,24.19,74.19,3.22,7.36,22.81,35.76,46.77,65.33,14.5,17.89,29.32,36,51.62,57.25,31.11,29.6,46.66,44.4,62.22,44.9,23.83.76,43-22,81.32-67.48,21.63-25.66,35.32-46.71,51.62-71.77,25.2-38.75,33.18-57.07,36.29-64.52,9.12-21.88,16.48-40,16.93-65.32C440.93,173.81,441,151,427,127.79Z" transform="translate(-65.5 -77.51)"/></svg>